<?xml version="1.0" encoding="UTF-8" standalone="no"?>
<!-- Created with Inkscape (http://www.inkscape.org/) -->

<svg
   width="2048"
   height="1152"
   viewBox="0 0 512 288"
   version="1.1"
   id="svg5"
   inkscape:version="1.2.1 (9c6d41e410, 2022-07-14, custom)"
   sodipodi:docname="acelsior_logo_2048_1152.svg"
   inkscape:export-filename="acelsior_logo_2048_1152.png"
   inkscape:export-xdpi="96"
   inkscape:export-ydpi="96"
   xmlns:inkscape="http://www.inkscape.org/namespaces/inkscape"
   xmlns:sodipodi="http://sodipodi.sourceforge.net/DTD/sodipodi-0.dtd"
   xmlns="http://www.w3.org/2000/svg"
   xmlns:svg="http://www.w3.org/2000/svg">
  <sodipodi:namedview
     id="namedview7"
     pagecolor="#ffffff"
     bordercolor="#666666"
     borderopacity="1.0"
     inkscape:showpageshadow="2"
     inkscape:pageopacity="0.0"
     inkscape:pagecheckerboard="0"
     inkscape:deskcolor="#d1d1d1"
     inkscape:document-units="mm"
     showgrid="false"
     inkscape:zoom="0.88549097"
     inkscape:cx="596.84403"
     inkscape:cy="287.41117"
     inkscape:window-width="3840"
     inkscape:window-height="2112"
     inkscape:window-x="0"
     inkscape:window-y="0"
     inkscape:window-maximized="1"
     inkscape:current-layer="layer1" />
  <defs
     id="defs2" />
  <g
     inkscape:label="Layer 1"
     inkscape:groupmode="layer"
     id="layer1"
     transform="translate(85.91694,-36.568473)">
    <g
       id="g1442"
       transform="translate(-222.53298,-10.426883)">
      <path
         id="path619-9"
         style="fill:#000000;stroke:none;stroke-width:0.264583px;stroke-linecap:butt;stroke-linejoin:miter;stroke-opacity:1"
         d="M 66.001616,36.568473 C 54.413303,48.165539 42.861394,77.885981 41.00292,109.3005 a 50.533196,50.533196 0 0 1 24.998696,-6.63026 50.533196,50.533196 0 0 1 25.001304,6.61985 C 89.142535,77.879361 77.588655,48.164275 66.001616,36.568473 Z" />
      <path
         id="path619-9-6"
         style="fill:#ffffff;stroke:none;stroke-width:0.264583px;stroke-linecap:butt;stroke-linejoin:miter;stroke-opacity:1"
         d="m 66.001616,86.591991 a 50.533196,50.533196 0 0 0 -14.187604,2.055135 c -0.781046,4.909906 -1.223656,10.009818 -1.219513,15.117254 3.59e-4,0.44116 0.0086,0.88262 0.01567,1.32397 a 50.533196,50.533196 0 0 1 15.386221,-2.41811 50.533196,50.533196 0 0 1 15.399284,2.40508 c 0.0071,-0.43712 0.01516,-0.87392 0.01566,-1.31094 0.0041,-5.115572 -0.441155,-10.22367 -1.224733,-15.140752 A 50.533196,50.533196 0 0 0 66.001616,86.591991 Z" />
      <path
         id="path619-9-0"
         style="fill:#ffdd55;stroke:none;stroke-width:0.264583px;stroke-linecap:butt;stroke-linejoin:miter;stroke-opacity:1"
         d="m 66.001616,102.67024 a 50.533196,50.533196 0 0 0 -15.391446,2.41811 c 0.327606,20.70148 7.860544,41.24828 15.391446,48.84317 7.53312,-7.59716 15.070545,-28.15376 15.394059,-48.86146 a 50.533196,50.533196 0 0 0 -15.394059,-2.39982 z" />
      <path
         id="path619-9-0-5"
         style="fill:#ffe680;stroke:none;stroke-width:0.264583px;stroke-linecap:butt;stroke-linejoin:miter;stroke-opacity:1"
         d="m 66.001616,102.67024 a 50.533196,50.533196 0 0 0 -8.265002,0.70504 c 2.48411,6.01027 5.373563,10.83553 8.265002,13.75155 2.894435,-2.91905 5.789189,-7.75089 8.275448,-13.76979 a 50.533196,50.533196 0 0 0 -8.275448,-0.6868 z" />
      <path
         id="path1122"
         style="fill:#ffffff;stroke:none;stroke-width:0.264583px;stroke-linecap:butt;stroke-linejoin:miter;stroke-opacity:1"
         d="m 66.006836,53.594775 c -4.49327,4.538335 -8.981214,13.586355 -11.94443,24.544327 a 50.533196,50.533196 0 0 1 0.0026,0 50.533196,50.533196 0 0 1 11.936598,-1.45192 50.533196,50.533196 0 0 1 11.900037,1.423166 h 0.03942 C 74.977792,67.165313 70.496428,58.129118 66.007084,53.594775 Z" />
    </g>
    <g
       id="g408"
       transform="translate(-2.6455438,85.318473)"
       style="stroke-width:0.999999">
      <text
         xml:space="preserve"
         style="font-style:normal;font-variant:normal;font-weight:normal;font-stretch:normal;font-size:35.2778px;line-height:1.25;font-family:'RobotoMono Nerd Font Mono';-inkscape-font-specification:'RobotoMono Nerd Font Mono';fill:#000000;fill-opacity:1;stroke:none;stroke-width:0.264583"
         x="111.4541"
         y="107.79015"
         id="text236"><tspan
           sodipodi:role="line"
           style="font-style:normal;font-variant:normal;font-weight:normal;font-stretch:normal;font-size:35.2778px;font-family:'RobotoMono Nerd Font Mono';-inkscape-font-specification:'RobotoMono Nerd Font Mono';stroke-width:0.264583"
           x="111.4541"
           y="107.79015"
           id="tspan288"><tspan
   style="font-size:35.2778px;fill:#ffdd55;stroke-width:0.264583"
   id="tspan400">ACE</tspan>LSIOR</tspan></text>
      <g
         id="g2367"
         transform="matrix(0.52245425,0,0,0.52245425,-13.656567,3.7770981)"
         style="stroke-width:1.91404">
        <g
           id="g2611"
           style="stroke-width:1.91404">
          <path
             id="path650-3-3-9"
             style="fill:#000000;stroke:none;stroke-width:0.50722"
             d="m 149.94487,94.22368 a 286.59241,286.59241 0 0 0 -47.85186,127.45269 80.900002,80.900002 0 0 1 28.46958,-13.34699 122.22307,122.47081 0 0 1 -1.93735,-21.49378 122.22307,122.47081 0 0 1 0.67644,-12.62817 50,50 0 0 1 20.64732,-4.49482 50,50 0 0 1 20.6437,4.46485 122.22307,122.47081 0 0 1 0.68006,12.65814 122.22307,122.47081 0 0 1 -1.93425,21.47362 80.900002,80.900002 0 0 1 28.45666,13.29842 286.59241,286.59241 0 0 0 -47.8503,-127.38396 z m 0.003,23.50761 a 122.22307,122.47081 0 0 1 18.19527,41.63002 50,50 0 0 0 -18.19372,-3.43235 50,50 0 0 0 -18.19476,3.4308 122.22307,122.47081 0 0 1 18.19321,-41.62847 z" />
          <path
             id="path650-3-3-6-7"
             style="fill:#ffdd55;stroke:none;stroke-width:0.50722"
             d="m 149.949,205.93417 a 80.900002,80.900002 0 0 0 -19.38538,2.39882 122.22307,122.47081 0 0 0 19.38538,47.6095 122.22307,122.47081 0 0 0 19.39158,-47.6436 80.900002,80.900002 0 0 0 -19.39158,-2.36472 z" />
          <path
             id="path650-3-3-6-7-3"
             style="fill:#ffe680;stroke:none;stroke-width:0.50722"
             d="m 149.949,205.93417 a 80.900002,80.900002 0 0 0 -11.0448,0.78962 122.22307,122.47081 0 0 0 11.0448,20.02875 122.22307,122.47081 0 0 0 11.05617,-20.05355 80.900002,80.900002 0 0 0 -11.05617,-0.76482 z" />
        </g>
      </g>
    </g>
  </g>
</svg>
