<?xml version="1.0" encoding="UTF-8" standalone="no"?>
<!-- Created with Inkscape (http://www.inkscape.org/) -->

<svg
   width="720"
   height="720"
   viewBox="0 0 190.49999 190.5"
   version="1.1"
   id="svg2654"
   inkscape:version="1.2.1 (9c6d41e410, 2022-07-14, custom)"
   sodipodi:docname="acelsior_logo_only_720_720.svg"
   inkscape:export-filename="acelsior_logo_only_720_720.png"
   inkscape:export-xdpi="256"
   inkscape:export-ydpi="256"
   xmlns:inkscape="http://www.inkscape.org/namespaces/inkscape"
   xmlns:sodipodi="http://sodipodi.sourceforge.net/DTD/sodipodi-0.dtd"
   xmlns="http://www.w3.org/2000/svg"
   xmlns:svg="http://www.w3.org/2000/svg">
  <sodipodi:namedview
     id="namedview2656"
     pagecolor="#ffffff"
     bordercolor="#666666"
     borderopacity="1.0"
     inkscape:showpageshadow="2"
     inkscape:pageopacity="0.0"
     inkscape:pagecheckerboard="0"
     inkscape:deskcolor="#d1d1d1"
     inkscape:document-units="mm"
     showgrid="false"
     inkscape:zoom="0.72"
     inkscape:cx="525.69444"
     inkscape:cy="902.08333"
     inkscape:window-width="3840"
     inkscape:window-height="2112"
     inkscape:window-x="0"
     inkscape:window-y="0"
     inkscape:window-maximized="1"
     inkscape:current-layer="layer1" />
  <defs
     id="defs2651" />
  <g
     inkscape:label="Layer 1"
     inkscape:groupmode="layer"
     id="layer1">
    <g
       id="g2126"
       transform="translate(-227.59946,-82.677335)">
      <path
         id="path650-3-3-9-5"
         style="fill:#000000;stroke:none;stroke-width:0.264999"
         d="m 322.85023,97.067931 a 286.59241,286.59241 0 0 0 -47.85186,127.452689 80.900002,80.900002 0 0 1 28.46958,-13.34699 122.22307,122.47081 0 0 1 -1.93735,-21.49378 122.22307,122.47081 0 0 1 0.67645,-12.62817 50,50 0 0 1 20.64732,-4.49482 50,50 0 0 1 20.6437,4.46485 122.22307,122.47081 0 0 1 0.68006,12.65814 122.22307,122.47081 0 0 1 -1.93425,21.47362 80.900002,80.900002 0 0 1 28.45666,13.29842 286.59241,286.59241 0 0 0 -47.85031,-127.383959 z m 0.003,23.507609 a 122.22307,122.47081 0 0 1 18.19528,41.63002 50,50 0 0 0 -18.19373,-3.43235 50,50 0 0 0 -18.19475,3.4308 122.22307,122.47081 0 0 1 18.1932,-41.62847 z" />
      <path
         id="path650-3-3-6-7-9"
         style="fill:#ffdd55;stroke:none;stroke-width:0.264999"
         d="m 322.85437,208.77842 a 80.900002,80.900002 0 0 0 -19.38538,2.39882 122.22307,122.47081 0 0 0 19.38538,47.6095 122.22307,122.47081 0 0 0 19.39158,-47.6436 80.900002,80.900002 0 0 0 -19.39158,-2.36472 z" />
      <path
         id="path650-3-3-6-7-3-2"
         style="fill:#ffe680;stroke:none;stroke-width:0.264999"
         d="m 322.85437,208.77842 a 80.900002,80.900002 0 0 0 -11.04481,0.78962 122.22307,122.47081 0 0 0 11.04481,20.02875 122.22307,122.47081 0 0 0 11.05617,-20.05355 80.900002,80.900002 0 0 0 -11.05617,-0.76482 z" />
    </g>
  </g>
</svg>
