<?xml version="1.0" encoding="UTF-8" standalone="no"?>
<!-- Created with Inkscape (http://www.inkscape.org/) -->

<svg
   width="1046.6346mm"
   height="573.44891mm"
   viewBox="0 0 1046.6346 573.44891"
   version="1.1"
   id="svg311"
   inkscape:version="1.2.1 (9c6d41e410, 2022-07-14, custom)"
   sodipodi:docname="acelsior_logo_with_golden_ratio_guides.svg"
   xmlns:inkscape="http://www.inkscape.org/namespaces/inkscape"
   xmlns:sodipodi="http://sodipodi.sourceforge.net/DTD/sodipodi-0.dtd"
   xmlns="http://www.w3.org/2000/svg"
   xmlns:svg="http://www.w3.org/2000/svg">
  <sodipodi:namedview
     id="namedview313"
     pagecolor="#ffffff"
     bordercolor="#666666"
     borderopacity="1.0"
     inkscape:showpageshadow="2"
     inkscape:pageopacity="0.0"
     inkscape:pagecheckerboard="0"
     inkscape:deskcolor="#d1d1d1"
     inkscape:document-units="mm"
     showgrid="false"
     inkscape:zoom="0.5946522"
     inkscape:cx="2099.5466"
     inkscape:cy="612.96334"
     inkscape:window-width="3840"
     inkscape:window-height="2112"
     inkscape:window-x="0"
     inkscape:window-y="0"
     inkscape:window-maximized="1"
     inkscape:current-layer="layer1" />
  <defs
     id="defs308" />
  <g
     inkscape:groupmode="layer"
     id="layer2"
     inkscape:label="guides"
     transform="translate(437.26919,55.834317)">
    <rect
       style="fill:none;stroke:#000000;stroke-width:0.264999;stroke-dasharray:2.11999, 2.11999;stroke-dashoffset:0"
       id="rect484"
       width="100"
       height="100"
       x="36.048126"
       y="130.88968" />
    <rect
       style="fill:none;stroke:#000000;stroke-width:0.265;stroke-dasharray:2.12, 2.12;stroke-dashoffset:0"
       id="rect538"
       width="100"
       height="61.535"
       x="36.048134"
       y="69.354668" />
    <rect
       style="fill:none;stroke:#000000;stroke-width:0.265;stroke-dasharray:2.12, 2.12;stroke-dashoffset:0"
       id="rect538-7"
       width="61.70348"
       height="61.535"
       x="36.048134"
       y="69.354668" />
    <rect
       style="fill:none;stroke:#000000;stroke-width:0.265;stroke-dasharray:2.12, 2.12;stroke-dashoffset:0"
       id="rect538-7-5"
       width="38.296516"
       height="38.297001"
       x="97.751602"
       y="92.592674" />
    <rect
       style="fill:none;stroke:#000000;stroke-width:0.264999;stroke-dasharray:2.11999, 2.11999;stroke-dashoffset:0"
       id="rect594"
       width="161.61499"
       height="161.535"
       x="-125.56686"
       y="69.354668" />
    <path
       style="fill:none;stroke:#000000;stroke-width:0.264583px;stroke-linecap:butt;stroke-linejoin:miter;stroke-dasharray:2.11666, 2.11666;stroke-dashoffset:0;stroke-opacity:1"
       d="M 97.7516,92.5839 H 86.046211"
       id="path1410"
       sodipodi:nodetypes="cc" />
    <path
       id="path650-3-3-6"
       style="fill:none;stroke:#000000;stroke-width:0.264999;stroke-dasharray:2.11999, 2.11999;stroke-dashoffset:0"
       d="M 86.046449,92.68668 A 122.22307,122.47081 0 0 0 64.724691,161.79116 122.22307,122.47081 0 0 0 86.048212,230.89807 122.22307,122.47081 0 0 0 107.37174,161.79116 122.22307,122.47081 0 0 0 86.046449,92.68668 Z" />
    <circle
       style="fill:none;stroke:#000000;stroke-width:0.264999;stroke-dasharray:2.11666, 2.11666;stroke-dashoffset:0"
       id="path1510-2"
       cx="86.048126"
       cy="180.88968"
       r="50" />
    <circle
       style="fill:none;stroke:#000000;stroke-width:0.264999;stroke-dasharray:2.11666, 2.11666;stroke-dashoffset:0"
       id="path1510-2-8"
       cx="86.048126"
       cy="194.66843"
       r="50" />
    <circle
       style="fill:none;stroke:#000000;stroke-width:0.264999;stroke-dasharray:2.11999, 2.11999;stroke-dashoffset:0"
       id="path1696-1"
       cx="86.048126"
       cy="137.77905"
       r="6.8893695" />
    <circle
       style="fill:none;stroke:#000000;stroke-width:0.264999;stroke-dasharray:2.11999, 2.11999;stroke-dashoffset:0"
       id="path1696"
       cx="86.037086"
       cy="216.29883"
       r="14.590853" />
    <circle
       style="fill:none;stroke:#000000;stroke-width:0.264999;stroke-dasharray:2.11666, 2.11666;stroke-dashoffset:0"
       id="path1510"
       cx="86.048126"
       cy="230.88968"
       r="50" />
    <circle
       style="fill:none;stroke:#000000;stroke-width:0.264999;stroke-dasharray:2.11999, 2.11999;stroke-dashoffset:0"
       id="path1508"
       cx="86.048073"
       cy="261.78967"
       r="80.900002" />
    <path
       style="fill:none;stroke:#000000;stroke-width:0.264583px;stroke-linecap:butt;stroke-linejoin:miter;stroke-opacity:1"
       d="m 86.048126,64.180416 v 5.041752"
       id="path715" />
    <circle
       style="fill:none;stroke:#000000;stroke-width:0.264999;stroke-dasharray:2.11999, 2.11999;stroke-dashoffset:0"
       id="path650-3-6"
       cx="-150.54428"
       cy="230.88968"
       r="286.59241" />
    <circle
       style="fill:none;stroke:#000000;stroke-width:0.264999;stroke-dasharray:2.11999, 2.11999;stroke-dashoffset:0"
       id="path650-3"
       cx="322.64053"
       cy="230.88968"
       r="286.59241" />
  </g>
  <g
     inkscape:label="Layer 1"
     inkscape:groupmode="layer"
     id="layer1"
     transform="translate(437.26919,55.834317)">
    <path
       id="path650-3-3-9"
       style="fill:#000000;stroke:none;stroke-width:0.264999"
       d="m 86.043844,69.17924 a 286.59241,286.59241 0 0 0 -47.85186,127.45269 80.900002,80.900002 0 0 1 28.46958,-13.34699 122.22307,122.47081 0 0 1 -1.937349,-21.49378 122.22307,122.47081 0 0 1 0.676444,-12.62817 50,50 0 0 1 20.647319,-4.49482 50,50 0 0 1 20.643702,4.46485 122.22307,122.47081 0 0 1 0.68006,12.65814 122.22307,122.47081 0 0 1 -1.93425,21.47362 80.900002,80.900002 0 0 1 28.45666,13.29842 A 286.59241,286.59241 0 0 0 86.043844,69.17924 Z m 0.0026,23.507609 a 122.22307,122.47081 0 0 1 18.195276,41.630021 50,50 0 0 0 -18.193725,-3.43235 50,50 0 0 0 -18.194755,3.4308 122.22307,122.47081 0 0 1 18.193204,-41.628471 z" />
    <path
       id="path650-3-3-6-7"
       style="fill:#ffdd55;stroke:none;stroke-width:0.264999"
       d="m 86.047978,180.88973 a 80.900002,80.900002 0 0 0 -19.38538,2.39882 122.22307,122.47081 0 0 0 19.38538,47.6095 122.22307,122.47081 0 0 0 19.391582,-47.6436 80.900002,80.900002 0 0 0 -19.391582,-2.36472 z" />
    <path
       id="path650-3-3-6-7-3"
       style="fill:#ffe680;stroke:none;stroke-width:0.264999"
       d="M 86.047978,180.88973 A 80.900002,80.900002 0 0 0 75.003174,181.67935 122.22307,122.47081 0 0 0 86.047978,201.7081 122.22307,122.47081 0 0 0 97.10415,181.65455 80.900002,80.900002 0 0 0 86.047978,180.88973 Z" />
    <g
       id="g2126"
       transform="translate(-7.9274527,-30.366639)">
      <path
         id="path650-3-3-9-5"
         style="fill:#000000;stroke:none;stroke-width:0.264999"
         d="m 322.85023,97.067931 a 286.59241,286.59241 0 0 0 -47.85186,127.452689 80.900002,80.900002 0 0 1 28.46958,-13.34699 122.22307,122.47081 0 0 1 -1.93735,-21.49378 122.22307,122.47081 0 0 1 0.67645,-12.62817 50,50 0 0 1 20.64732,-4.49482 50,50 0 0 1 20.6437,4.46485 122.22307,122.47081 0 0 1 0.68006,12.65814 122.22307,122.47081 0 0 1 -1.93425,21.47362 80.900002,80.900002 0 0 1 28.45666,13.29842 286.59241,286.59241 0 0 0 -47.85031,-127.383959 z m 0.003,23.507609 a 122.22307,122.47081 0 0 1 18.19528,41.63002 50,50 0 0 0 -18.19373,-3.43235 50,50 0 0 0 -18.19475,3.4308 122.22307,122.47081 0 0 1 18.1932,-41.62847 z" />
      <path
         id="path650-3-3-6-7-9"
         style="fill:#ffdd55;stroke:none;stroke-width:0.264999"
         d="m 322.85437,208.77842 a 80.900002,80.900002 0 0 0 -19.38538,2.39882 122.22307,122.47081 0 0 0 19.38538,47.6095 122.22307,122.47081 0 0 0 19.39158,-47.6436 80.900002,80.900002 0 0 0 -19.39158,-2.36472 z" />
      <path
         id="path650-3-3-6-7-3-2"
         style="fill:#ffe680;stroke:none;stroke-width:0.264999"
         d="m 322.85437,208.77842 a 80.900002,80.900002 0 0 0 -11.04481,0.78962 122.22307,122.47081 0 0 0 11.04481,20.02875 122.22307,122.47081 0 0 0 11.05617,-20.05355 80.900002,80.900002 0 0 0 -11.05617,-0.76482 z" />
    </g>
  </g>
</svg>
